<?xml version="1.0" encoding="UTF-8"?>
<svg xmlns="http://www.w3.org/2000/svg" width="181" height="50" viewBox="0 0 181 50" fill="none">
  <path d="M23.2827 24.9063C23.7957 24.9061 24.3081 24.9372 24.8173 24.9996C21.7843 25.3748 18.9928 26.8479 16.9686 29.1415C14.9444 31.4352 13.827 34.3912 13.827 37.4528C13.827 40.5143 14.9444 43.4703 16.9686 45.764C18.9928 48.0576 21.7843 49.5307 24.8173 49.9059C23.121 50.1152 21.3998 49.9746 19.7597 49.4925C18.1197 49.0104 16.5955 48.1971 15.281 47.1027C13.9665 46.0083 12.8896 44.6559 12.1164 43.1289C11.3432 41.6018 10.8902 39.9323 10.7853 38.2233C10.6804 36.5142 10.9258 34.8017 11.5064 33.1913C12.0869 31.5808 12.9904 30.1064 14.1611 28.8589C15.3319 27.6114 16.7451 26.6171 18.3138 25.9374C19.8825 25.2576 21.5735 24.9067 23.2827 24.9063Z" fill="#EE1E24"></path>
  <mask id="mask0_1021_3838" style="mask-type:luminance" maskUnits="userSpaceOnUse" x="10" y="24" width="15" height="26">
    <path d="M23.2827 24.9063C23.7957 24.9061 24.3081 24.9372 24.8173 24.9996C21.7843 25.3748 18.9928 26.8479 16.9686 29.1415C14.9444 31.4352 13.827 34.3912 13.827 37.4528C13.827 40.5143 14.9444 43.4703 16.9686 45.764C18.9928 48.0576 21.7843 49.5307 24.8173 49.9059C23.121 50.1152 21.3998 49.9746 19.7597 49.4925C18.1197 49.0104 16.5955 48.1971 15.281 47.1027C13.9665 46.0083 12.8896 44.6559 12.1164 43.1289C11.3432 41.6018 10.8902 39.9323 10.7853 38.2233C10.6804 36.5142 10.9258 34.8017 11.5064 33.1913C12.0869 31.5808 12.9904 30.1064 14.1611 28.8589C15.3319 27.6114 16.7451 26.6171 18.3138 25.9374C19.8825 25.2576 21.5735 24.9067 23.2827 24.9063Z" fill="white"></path>
  </mask>
  <g mask="url(#mask0_1021_3838)">
    <path d="M35.7445 38.0273C36.0573 31.1062 30.7105 25.2406 23.8021 24.9262C16.8936 24.6118 11.0395 29.9676 10.7267 36.8887C10.4138 43.8098 15.7606 49.6753 22.6691 49.9897C29.5776 50.3041 35.4316 44.9483 35.7445 38.0273Z" fill="#EE1E24"></path>
  </g>
  <path d="M24.1277 23.6205C24.3846 24.0659 24.6139 24.5268 24.8141 25.0005C22.9734 22.5564 20.3041 20.8709 17.3091 20.2613C14.3141 19.6518 11.2 20.1602 8.55318 21.691C5.90636 23.2217 3.9095 25.6691 2.93862 28.5722C1.96774 31.4754 2.08984 34.6339 3.28192 37.4532C2.25192 36.086 1.51221 34.5221 1.10835 32.8577C0.704493 31.1933 0.645041 29.4637 0.933658 27.7754C1.22228 26.0871 1.85285 24.4759 2.78654 23.041C3.72023 21.6061 4.93727 20.3779 6.3627 19.432C7.78812 18.4861 9.39175 17.8426 11.0748 17.5411C12.7579 17.2396 14.4847 17.2865 16.149 17.6789C17.8133 18.0713 19.3798 18.8009 20.752 19.8227C22.1242 20.8446 23.273 22.137 24.1277 23.6205Z" fill="#EE1E24"></path>
  <mask id="mask1_1021_3838" style="mask-type:luminance" maskUnits="userSpaceOnUse" x="0" y="17" width="25" height="21">
    <path d="M24.1277 23.6205C24.3846 24.0659 24.6139 24.5268 24.8141 25.0005C22.9734 22.5564 20.3041 20.8709 17.3091 20.2613C14.3141 19.6518 11.2 20.1602 8.55318 21.691C5.90636 23.2217 3.9095 25.6691 2.93862 28.5722C1.96774 31.4754 2.08984 34.6339 3.28192 37.4532C2.25192 36.086 1.51221 34.5221 1.10835 32.8577C0.704493 31.1933 0.645041 29.4637 0.933658 27.7754C1.22228 26.0871 1.85285 24.4759 2.78654 23.041C3.72023 21.6061 4.93727 20.3779 6.3627 19.432C7.78812 18.4861 9.39175 17.8426 11.0748 17.5411C12.7579 17.2396 14.4847 17.2865 16.149 17.6789C17.8133 18.0713 19.3798 18.8009 20.752 19.8227C22.1242 20.8446 23.273 22.137 24.1277 23.6205Z" fill="white"></path>
  </mask>
  <g mask="url(#mask1_1021_3838)">
    <path d="M13.2562 42.4036C20.1718 42.4036 25.778 36.7872 25.778 29.859C25.778 22.9308 20.1718 17.3145 13.2562 17.3145C6.34058 17.3145 0.734375 22.9308 0.734375 29.859C0.734375 36.7872 6.34058 42.4036 13.2562 42.4036Z" fill="#EE1E24"></path>
  </g>
  <path d="M25.6629 23.7131C25.4056 24.1579 25.1227 24.5872 24.8154 24.9989C26.0075 22.1797 26.1296 19.0211 25.1587 16.1179C24.1879 13.2148 22.191 10.7674 19.5442 9.23671C16.8974 7.70597 13.7832 7.1975 10.7882 7.80705C7.79322 8.4166 5.124 10.1021 3.2832 12.5462C3.48394 12.0727 3.71317 11.6119 3.96961 11.1662C5.64497 8.31324 8.37772 6.23905 11.5726 5.39539C14.7676 4.55174 18.1658 5.00698 21.0272 6.66195C23.8886 8.31693 25.9814 11.0376 26.8496 14.2313C27.7179 17.425 27.2913 20.833 25.6629 23.7131Z" fill="#EE1E24"></path>
  <mask id="mask2_1021_3838" style="mask-type:luminance" maskUnits="userSpaceOnUse" x="3" y="4" width="25" height="21">
    <path d="M25.6629 23.7131C25.4056 24.1579 25.1227 24.5872 24.8154 24.9989C26.0075 22.1797 26.1296 19.0211 25.1587 16.1179C24.1879 13.2148 22.191 10.7674 19.5442 9.23671C16.8974 7.70597 13.7832 7.1975 10.7882 7.80705C7.79322 8.4166 5.124 10.1021 3.2832 12.5462C3.48394 12.0727 3.71317 11.6119 3.96961 11.1662C5.64497 8.31324 8.37772 6.23905 11.5726 5.39539C14.7676 4.55174 18.1658 5.00698 21.0272 6.66195C23.8886 8.31693 25.9814 11.0376 26.8496 14.2313C27.7179 17.425 27.2913 20.833 25.6629 23.7131Z" fill="white"></path>
  </mask>
  <g mask="url(#mask2_1021_3838)">
    <path d="M14.8382 29.9451C21.7538 29.9451 27.36 24.3287 27.36 17.4005C27.36 10.4724 21.7538 4.85596 14.8382 4.85596C7.92262 4.85596 2.31641 10.4724 2.31641 17.4005C2.31641 24.3287 7.92262 29.9451 14.8382 29.9451Z" fill="#EE1E24"></path>
  </g>
  <path d="M26.351 25.0938C25.8381 25.094 25.3256 25.0628 24.8164 25.0004C27.8494 24.6253 30.6409 23.1522 32.6651 20.8585C34.6893 18.5648 35.8067 15.6089 35.8067 12.5473C35.8067 9.48568 34.6893 6.52972 32.6651 4.23605C30.6409 1.94238 27.8494 0.469284 24.8164 0.0941577C26.5128 -0.115221 28.2339 0.0254636 29.874 0.507548C31.514 0.989632 33.0382 1.80292 34.3527 2.89733C35.6672 3.99173 36.7442 5.3441 37.5173 6.87117C38.2905 8.39824 38.7435 10.0677 38.8484 11.7767C38.9533 13.4858 38.7079 15.1983 38.1273 16.8088C37.5468 18.4192 36.6433 19.8936 35.4726 21.1411C34.3018 22.3887 32.8886 23.3829 31.3199 24.0627C29.7512 24.7424 28.0602 25.0933 26.351 25.0938Z" fill="#EE1E24"></path>
  <mask id="mask3_1021_3838" style="mask-type:luminance" maskUnits="userSpaceOnUse" x="24" y="0" width="15" height="26">
    <path d="M26.351 25.0938C25.8381 25.094 25.3256 25.0628 24.8164 25.0004C27.8494 24.6253 30.6409 23.1522 32.6651 20.8585C34.6893 18.5648 35.8067 15.6089 35.8067 12.5473C35.8067 9.48568 34.6893 6.52972 32.6651 4.23605C30.6409 1.94238 27.8494 0.469284 24.8164 0.0941577C26.5128 -0.115221 28.2339 0.0254636 29.874 0.507548C31.514 0.989632 33.0382 1.80292 34.3527 2.89733C35.6672 3.99173 36.7442 5.3441 37.5173 6.87117C38.2905 8.39824 38.7435 10.0677 38.8484 11.7767C38.9533 13.4858 38.7079 15.1983 38.1273 16.8088C37.5468 18.4192 36.6433 19.8936 35.4726 21.1411C34.3018 22.3887 32.8886 23.3829 31.3199 24.0627C29.7512 24.7424 28.0602 25.0933 26.351 25.0938Z" fill="white"></path>
  </mask>
  <g mask="url(#mask3_1021_3838)">
    <path d="M26.3949 25.0867C33.3105 25.0867 38.9167 19.4703 38.9167 12.5421C38.9167 5.61395 33.3105 -0.00244141 26.3949 -0.00244141C19.4793 -0.00244141 13.873 5.61395 13.873 12.5421C13.873 19.4703 19.4793 25.0867 26.3949 25.0867Z" fill="#EE1E24"></path>
  </g>
  <path d="M25.5009 26.3776C25.244 25.9322 25.0147 25.4713 24.8145 24.9976C26.6552 27.4417 29.3245 29.1272 32.3195 29.7367C35.3145 30.3463 38.4286 29.8378 41.0754 28.3071C43.7222 26.7764 45.7191 24.329 46.69 21.4259C47.6609 18.5227 47.5388 15.3641 46.3467 12.5449C47.3767 13.9121 48.1164 15.476 48.5202 17.1404C48.9241 18.8048 48.9836 20.5344 48.6949 22.2227C48.4063 23.911 47.7758 25.5222 46.8421 26.9571C45.9084 28.392 44.6913 29.6202 43.2659 30.5661C41.8405 31.512 40.2368 32.1554 38.5538 32.4569C36.8707 32.7584 35.1439 32.7115 33.4796 32.3192C31.8153 31.9268 30.2488 31.1972 28.8766 30.1754C27.5044 29.1535 26.3556 27.8611 25.5009 26.3776Z" fill="#EE1E24"></path>
  <mask id="mask4_1021_3838" style="mask-type:luminance" maskUnits="userSpaceOnUse" x="24" y="12" width="25" height="21">
    <path d="M25.5009 26.3776C25.244 25.9322 25.0147 25.4713 24.8145 24.9976C26.6552 27.4417 29.3245 29.1272 32.3195 29.7367C35.3145 30.3463 38.4286 29.8378 41.0754 28.3071C43.7222 26.7764 45.7191 24.329 46.69 21.4259C47.6609 18.5227 47.5388 15.3641 46.3467 12.5449C47.3767 13.9121 48.1164 15.476 48.5202 17.1404C48.9241 18.8048 48.9836 20.5344 48.6949 22.2227C48.4063 23.911 47.7758 25.5222 46.8421 26.9571C45.9084 28.392 44.6913 29.6202 43.2659 30.5661C41.8405 31.512 40.2368 32.1554 38.5538 32.4569C36.8707 32.7584 35.1439 32.7115 33.4796 32.3192C31.8153 31.9268 30.2488 31.1972 28.8766 30.1754C27.5044 29.1535 26.3556 27.8611 25.5009 26.3776Z" fill="white"></path>
  </mask>
  <g mask="url(#mask4_1021_3838)">
    <path d="M36.3753 32.6868C43.2909 32.6868 48.8972 27.0704 48.8972 20.1422C48.8972 13.2141 43.2909 7.59766 36.3753 7.59766C29.4597 7.59766 23.8535 13.2141 23.8535 20.1422C23.8535 27.0704 29.4597 32.6868 36.3753 32.6868Z" fill="#EE1E24"></path>
  </g>
  <path d="M23.966 26.2853C24.2232 25.8405 24.5061 25.4112 24.8134 24.9995C23.6213 27.8187 23.4992 30.9773 24.4701 33.8804C25.441 36.7836 27.4378 39.231 30.0846 40.7617C32.7315 42.2924 35.8456 42.8009 38.8406 42.1913C41.8356 41.5818 44.5048 39.8963 46.3456 37.4522C46.1449 37.9257 45.9157 38.3865 45.6592 38.8322C43.9918 41.7011 41.2574 43.791 38.055 44.6444C34.8527 45.4977 31.4432 45.0449 28.5734 43.3851C25.7035 41.7254 23.6072 38.9938 22.7435 35.7888C21.8798 32.5838 22.3199 29.1665 23.966 26.2853Z" fill="#EE1E24"></path>
  <mask id="mask5_1021_3838" style="mask-type:luminance" maskUnits="userSpaceOnUse" x="22" y="24" width="25" height="22">
    <path d="M23.966 26.2853C24.2232 25.8405 24.5061 25.4112 24.8134 24.9995C23.6213 27.8187 23.4992 30.9773 24.4701 33.8804C25.441 36.7836 27.4378 39.231 30.0846 40.7617C32.7315 42.2924 35.8456 42.8009 38.8406 42.1913C41.8356 41.5818 44.5048 39.8963 46.3456 37.4522C46.1449 37.9257 45.9157 38.3865 45.6592 38.8322C43.9918 41.7011 41.2574 43.791 38.055 44.6444C34.8527 45.4977 31.4432 45.0449 28.5734 43.3851C25.7035 41.7254 23.6072 38.9938 22.7435 35.7888C21.8798 32.5838 22.3199 29.1665 23.966 26.2853Z" fill="white"></path>
  </mask>
  <g mask="url(#mask5_1021_3838)">
    <path d="M34.7933 45.1438C41.7089 45.1438 47.3151 39.5274 47.3151 32.5993C47.3151 25.6711 41.7089 20.0547 34.7933 20.0547C27.8777 20.0547 22.2715 25.6711 22.2715 32.5993C22.2715 39.5274 27.8777 45.1438 34.7933 45.1438Z" fill="#EE1E24"></path>
  </g>
  <path d="M70.5217 29.4311C70.2957 30.0639 69.9916 30.6659 69.6165 31.2231C69.2744 31.7319 68.8801 32.2035 68.4401 32.6301C68.0309 33.025 67.579 33.3729 67.0927 33.6674C66.645 33.9395 66.1752 34.1734 65.6883 34.3666C65.2499 34.5414 64.7966 34.676 64.334 34.7687C63.937 34.851 63.5329 34.8946 63.1276 34.8991H50.1543L51.3784 31.5303H64.3517C64.9713 31.5398 65.5759 31.3384 66.0666 30.9592C66.5714 30.5672 66.9511 30.0361 67.159 29.4311C67.2649 29.1584 67.322 28.8692 67.3277 28.5767C67.3332 28.3418 67.2774 28.1096 67.1659 27.9029C67.0536 27.7092 66.884 27.5552 66.6806 27.4622C66.4315 27.3528 66.1613 27.3001 65.8894 27.3079H58.1509C57.5873 27.3039 57.0284 27.205 56.4976 27.0154C55.9534 26.8314 55.4668 26.5078 55.0863 26.0769C54.682 25.5949 54.4282 25.0044 54.3567 24.3789C54.2765 23.5043 54.412 22.6234 54.7512 21.8136C55.0744 20.8762 55.571 20.0083 56.2149 19.2551C56.7828 18.596 57.4442 18.0239 58.1778 17.5572C58.8278 17.142 59.5344 16.8236 60.2756 16.6117C60.8815 16.4315 61.5088 16.3331 62.1407 16.3192H73.5886L72.3645 19.688H60.9242C60.3059 19.6813 59.704 19.887 59.2186 20.2707C58.7125 20.6689 58.3316 21.2048 58.1216 21.8143C58.0046 22.0526 57.9421 22.314 57.9385 22.5795C57.9349 22.845 57.9903 23.108 58.1008 23.3494C58.2452 23.5512 58.4413 23.7102 58.6685 23.8095C58.8956 23.9088 59.1453 23.9447 59.3912 23.9136H67.149C67.5188 23.9244 67.8865 23.9741 68.246 24.0618C68.6157 24.1518 68.971 24.2934 69.3014 24.4824C69.6337 24.6718 69.9325 24.9148 70.1858 25.2017C70.451 25.5052 70.6499 25.8609 70.7698 26.2459C70.9064 26.6991 70.9586 27.1737 70.9238 27.6459C70.8765 28.2573 70.7411 28.8586 70.5217 29.4311ZM93.7411 24.0934C93.023 26.1133 91.6337 27.8245 89.806 28.9402C89.2913 29.2554 88.75 29.5245 88.1881 29.7444C87.6823 29.9427 87.1597 30.0948 86.6266 30.199C86.1728 30.2889 85.7117 30.3362 85.2491 30.3402H77.6416L78.8657 26.9714H86.4717C86.9042 26.9393 87.3305 26.8503 87.7398 26.7067C88.1345 26.5676 88.5075 26.3729 88.8476 26.1286C89.1895 25.8832 89.493 25.5883 89.7482 25.2534C90.0161 24.9022 90.2284 24.5117 90.3776 24.0957L90.9338 22.5676C91.039 22.1877 91.0909 21.7949 91.0879 21.4006C91.0888 21.0836 91.0093 20.7716 90.8567 20.4938C90.7047 20.2374 90.48 20.0322 90.2112 19.9042C89.8698 19.7501 89.4976 19.6766 89.1234 19.6896H81.542C81.1311 19.6777 80.7276 19.8005 80.3926 20.0392C80.0586 20.2963 79.8092 20.648 79.6769 21.0487L74.6448 34.9022H71.2821L76.3142 21.0487C76.596 20.241 77.0275 19.494 77.5861 18.8468C78.0799 18.2752 78.6564 17.7809 79.2964 17.3804C79.8638 17.0246 80.4788 16.7515 81.123 16.5693C81.6487 16.4136 82.1927 16.3285 82.7407 16.3161H90.3468C91.0049 16.3007 91.6607 16.3996 92.285 16.6086C92.7715 16.7756 93.2192 17.0398 93.6009 17.3851C93.9368 17.6976 94.1998 18.0805 94.3712 18.5065C94.5409 18.9318 94.6483 19.3794 94.6902 19.8355C94.7337 20.3023 94.7169 20.7729 94.6401 21.2355C94.5679 21.688 94.4542 22.1329 94.3004 22.5645L93.7411 24.0934ZM110.887 34.8984H107.524L109.182 30.3371H97.3573L95.6994 34.8984H92.3367L95.7133 25.6069C96.2012 24.2587 96.8957 22.9948 97.7717 21.8606C98.6307 20.7419 99.6441 19.7513 100.782 18.9186C101.893 18.1063 103.117 17.46 104.414 16.9999C105.682 16.5472 107.017 16.3146 108.363 16.3123H115.944C116.157 16.3073 116.368 16.3519 116.561 16.4427C116.729 16.5229 116.871 16.6489 116.971 16.8062C117.071 16.9693 117.128 17.1553 117.135 17.3464C117.144 17.5718 117.106 17.7965 117.024 18.0063L110.887 34.8984ZM98.5814 26.9675H110.405L113.052 19.6834H107.14C107.038 19.6834 106.814 19.6996 106.47 19.7289C106.054 19.7719 105.642 19.8475 105.238 19.9551C104.697 20.0975 104.168 20.2839 103.657 20.5123C103.046 20.7852 102.472 21.1337 101.947 21.5496C100.623 22.5979 99.6265 24.005 99.0767 25.6038L98.5814 26.9675ZM131.554 34.8984H119.423C118.933 34.8945 118.448 34.811 117.986 34.6514C117.486 34.4951 117.042 34.1971 116.708 33.7933C116.373 33.3895 116.163 32.8972 116.102 32.3762C116.027 31.6238 116.14 30.8644 116.433 30.1673L120.849 18.011C120.936 17.7726 121.061 17.5498 121.218 17.3511C121.378 17.1471 121.564 16.9654 121.772 16.8108C121.976 16.6576 122.201 16.5352 122.44 16.4473C122.671 16.362 122.915 16.3178 123.16 16.3169H138.309L137.084 19.6857H123.603L119.793 30.1696C119.713 30.3258 119.67 30.4981 119.667 30.6734C119.664 30.8487 119.701 31.0225 119.775 31.1815C119.882 31.3112 120.02 31.4114 120.176 31.4726C120.333 31.5338 120.502 31.5539 120.668 31.5311H132.775L131.554 34.8984ZM132.801 27.3056H122.184L123.416 23.9097H134.034L132.801 27.3056ZM157.819 22.5614C157.101 24.5813 155.712 26.2926 153.884 27.4082C153.369 27.7237 152.827 27.995 152.266 28.2193C151.761 28.4222 151.237 28.5759 150.702 28.6786C150.249 28.7688 149.788 28.8163 149.325 28.8206L154.141 34.8984H148.942L144.138 28.8206H141.719L142.943 25.4517H150.549C150.977 25.4187 151.399 25.3297 151.803 25.187C152.2 25.047 152.575 24.8524 152.918 24.6089C153.262 24.3649 153.568 24.0697 153.823 23.7337C154.093 23.3777 154.307 22.9827 154.457 22.5622L155.228 20.4382C155.287 20.3014 155.316 20.1535 155.314 20.0045C155.31 19.9206 155.274 19.8414 155.214 19.783C155.156 19.7351 155.086 19.7057 155.011 19.6988C154.938 19.69 154.864 19.6854 154.79 19.685H143.694L138.167 34.8999H134.804L140.939 18.0133C141.026 17.7749 141.151 17.5521 141.308 17.3534C141.468 17.1494 141.654 16.9677 141.862 16.8132C142.066 16.66 142.291 16.5375 142.53 16.4496C142.761 16.3643 143.005 16.3201 143.251 16.3192H156.019C156.63 16.2854 157.239 16.4273 157.772 16.7283C158.166 16.9707 158.476 17.3278 158.661 17.7517C158.837 18.1705 158.911 18.6252 158.878 19.0783C158.852 19.5336 158.761 19.9828 158.607 20.412L157.819 22.5614ZM178.914 27.3835C178.508 28.5078 177.928 29.5615 177.197 30.5062C176.479 31.44 175.634 32.2687 174.687 32.9681C173.759 33.6522 172.736 34.1955 171.65 34.5804C170.593 34.9604 169.478 35.1559 168.355 35.1584H163.802C162.81 35.1837 161.826 34.9862 160.92 34.5804C160.155 34.2336 159.505 33.674 159.048 32.9681C158.593 32.2258 158.342 31.3767 158.318 30.5062C158.29 29.4391 158.476 28.3772 158.865 27.3835L160.156 23.8333C160.564 22.7104 161.144 21.6584 161.877 20.7153C162.596 19.7801 163.443 18.9513 164.394 18.2533C165.325 17.5707 166.35 17.0275 167.438 16.641C168.497 16.258 169.615 16.0609 170.741 16.0584H175.294C176.283 16.0326 177.265 16.2318 178.167 16.641C178.927 16.9928 179.573 17.5514 180.032 18.2533C180.488 18.9943 180.738 19.8446 180.754 20.7153C180.777 21.7807 180.59 22.8401 180.205 23.8333L178.914 27.3835ZM176.839 23.8333C177.065 23.2578 177.18 22.6449 177.179 22.0266C177.18 21.537 177.046 21.0565 176.794 20.6373C176.536 20.2413 176.167 19.9306 175.734 19.7444C175.209 19.5202 174.642 19.412 174.072 19.4272H169.519C168.871 19.4255 168.226 19.5327 167.613 19.7444C167 19.9547 166.422 20.2557 165.898 20.6373C165.365 21.0282 164.892 21.4964 164.496 22.0266C164.083 22.5763 163.755 23.1854 163.522 23.8333L162.232 27.3835C162.006 27.9589 161.891 28.5719 161.892 29.1902C161.892 29.681 162.029 30.162 162.287 30.5794C162.548 30.9742 162.918 31.2844 163.351 31.4724C163.881 31.6974 164.452 31.8056 165.027 31.7896H169.553C170.202 31.7911 170.846 31.6839 171.459 31.4724C172.072 31.2621 172.65 30.9611 173.174 30.5794C173.707 30.1886 174.18 29.7204 174.576 29.1902C174.989 28.6405 175.318 28.0314 175.55 27.3835L176.839 23.8333Z" fill="#EE1E24"></path>
  <path d="M23.5645 22.7308C23.5645 22.7308 25.0921 25.1928 25.5775 22.5186C25.4294 23.3758 25.1736 24.2108 24.8163 25.0037C24.8163 25.0037 23.9111 23.2047 23.5645 22.7308Z" fill="#EE1E24"></path>
  <path d="M22.2246 24.9494C22.2246 24.9494 25.1159 24.8561 23.0474 23.0972C23.7146 23.6537 24.3085 24.293 24.8146 24.9996C24.8146 24.9996 22.8109 24.8877 22.2246 24.9494Z" fill="#EE1E24"></path>
  <path d="M23.4774 27.2223C23.4774 27.2223 24.8409 24.6661 22.2871 25.5822C23.1019 25.2814 23.9515 25.0856 24.8155 24.9995C24.8155 24.9995 23.7169 26.6828 23.4774 27.2223Z" fill="#EE1E24"></path>
  <path d="M26.0657 27.2724C26.0657 27.2724 24.5381 24.8104 24.0527 27.4847C24.2008 26.6274 24.4565 25.7924 24.8139 24.9995C24.8139 24.9995 25.7191 26.7947 26.0657 27.2724Z" fill="#EE1E24"></path>
  <path d="M27.4045 25.0497C27.4045 25.0497 24.5132 25.1431 26.5817 26.902C25.9145 26.3454 25.3206 25.7062 24.8145 24.9995C24.8145 24.9995 26.8205 25.1114 27.4045 25.0497Z" fill="#EE1E24"></path>
  <path d="M26.1526 22.7773C26.1526 22.7773 24.789 25.3335 27.3429 24.4174C26.5281 24.7182 25.6785 24.914 24.8145 25.0001C24.8145 25.0001 25.9153 23.316 26.1526 22.7773Z" fill="#EE1E24"></path>
</svg>
